<?xml version="1.0" standalone="no"?>
<!DOCTYPE svg PUBLIC "-//W3C//DTD SVG 20010904//EN"
 "http://www.w3.org/TR/2001/REC-SVG-20010904/DTD/svg10.dtd">
<svg version="1.0" xmlns="http://www.w3.org/2000/svg"
 width="400.000000pt" height="400.000000pt" viewBox="0 0 400.000000 400.000000"
 preserveAspectRatio="xMidYMid meet">
<metadata>
Created by potrace 1.11, written by Peter Selinger 2001-2013
</metadata>
<g transform="translate(0.000000,400.000000) scale(0.100000,-0.100000)"
fill="#000000" stroke="none">
<path d="M2229 3977 c15 -19 1 -30 -17 -14 -13 10 -14 9 -7 -2 6 -11 5 -12 -6
-5 -21 13 -42 14 -56 2 -10 -8 -13 -7 -13 3 0 9 -3 10 -8 4 -7 -10 -27 -15
-74 -18 -22 -2 -24 -5 -15 -16 9 -12 9 -13 0 -7 -7 4 -19 4 -25 -1 -7 -4 -20
-8 -28 -8 -8 -1 -25 -5 -38 -9 -20 -7 -21 -10 -10 -24 7 -10 9 -14 4 -10 -4 3
-27 -14 -51 -38 -24 -24 -49 -44 -54 -44 -6 0 -11 -7 -11 -15 0 -8 -5 -15 -10
-15 -6 0 -9 -3 -8 -7 1 -5 -12 -23 -30 -42 -17 -19 -29 -37 -27 -39 2 -3 -4
-17 -15 -32 -11 -16 -20 -33 -20 -40 0 -6 -4 -8 -10 -5 -5 3 -10 2 -10 -4 0
-5 -6 -16 -12 -23 -31 -33 -38 -56 -23 -72 9 -8 11 -17 6 -21 -5 -3 -10 -13
-10 -23 -1 -9 -3 -53 -5 -97 -2 -44 -1 -84 2 -90 3 -5 8 -27 9 -48 2 -22 8
-47 13 -56 6 -12 5 -22 -3 -31 -10 -10 -9 -11 3 -5 8 5 3 -3 -12 -17 -27 -27
-30 -52 -13 -149 22 -126 43 -169 81 -169 19 0 24 -5 24 -24 0 -14 5 -28 10
-31 6 -3 10 -19 10 -36 0 -16 4 -29 8 -29 4 0 14 -21 21 -47 8 -27 16 -52 19
-58 3 -5 7 -23 8 -40 8 -130 8 -124 -18 -144 -23 -18 -36 -51 -43 -105 -2 -21
-31 -46 -52 -46 -7 0 -13 -4 -13 -9 0 -23 -67 -39 -152 -36 -49 2 -93 7 -99
11 -6 3 -35 6 -65 5 -48 -1 -121 -23 -221 -67 -38 -17 -98 -75 -144 -138 -18
-25 -38 -46 -46 -46 -7 0 -13 -4 -13 -8 0 -5 -11 -22 -25 -38 -14 -16 -38 -47
-53 -69 -15 -22 -30 -41 -34 -43 -5 -2 -8 -10 -8 -17 0 -8 -8 -19 -17 -24 -10
-6 -13 -11 -8 -11 6 0 5 -4 -1 -8 -7 -4 -15 -24 -18 -46 -4 -21 -9 -42 -12
-47 -5 -8 -8 -19 -19 -71 -2 -13 -12 -27 -21 -33 -20 -12 -69 -64 -69 -73 0
-4 -4 -13 -8 -19 -5 -7 -6 -17 -2 -22 3 -5 1 -12 -5 -16 -6 -4 -8 -10 -6 -14
3 -4 -20 -33 -50 -65 -30 -32 -55 -65 -55 -72 -1 -8 -3 -18 -4 -24 -1 -5 -3
-19 -4 -30 0 -11 -14 -25 -33 -34 -18 -8 -58 -26 -88 -39 -54 -24 -72 -43
-121 -127 -14 -23 -16 -63 -6 -100 2 -8 8 -34 12 -57 4 -24 11 -43 16 -43 5 0
9 -7 9 -15 0 -8 11 -25 24 -38 13 -13 24 -31 24 -38 -2 -36 3 -57 19 -75 12
-13 18 -35 17 -65 0 -54 18 -163 33 -199 14 -33 53 -75 78 -85 11 -5 79 -9
150 -11 72 -1 145 -5 164 -8 18 -4 54 -9 80 -11 25 -3 56 -7 69 -10 49 -11 62
-14 109 -21 26 -3 51 -8 55 -10 7 -4 -12 -65 -51 -161 l-21 -53 1074 0 1075 0
-11 33 c-11 37 -15 61 -23 137 -3 30 -8 71 -10 90 -3 19 -7 63 -10 97 l-5 62
84 -1 c74 -1 90 3 129 26 25 14 64 47 87 73 38 43 47 48 88 50 26 2 61 5 77 7
17 2 37 5 47 5 11 1 18 14 23 44 4 23 10 46 13 52 13 21 12 77 -3 111 -12 30
-13 44 -4 72 6 18 19 71 28 116 23 111 17 186 -20 245 -29 48 -71 91 -89 91
-6 0 -9 3 -8 7 4 15 -14 109 -27 138 -6 17 -35 54 -64 83 -42 43 -52 60 -55
95 -2 26 2 50 11 64 14 21 13 26 -11 57 -14 19 -26 41 -26 49 0 7 -3 17 -7 21
-5 4 -8 11 -8 15 0 11 -48 115 -56 121 -4 3 -22 30 -42 61 -42 66 -87 108
-151 138 -39 20 -56 22 -104 16 -31 -3 -71 -8 -89 -10 -17 -2 -53 -14 -79 -26
-27 -12 -55 -22 -64 -24 -14 -2 -60 25 -88 52 -7 7 -19 13 -25 14 -7 0 -21 3
-32 5 -11 2 -38 6 -60 8 -73 6 -91 15 -114 59 -53 99 -67 123 -78 135 -7 7
-13 16 -14 20 -4 35 -4 62 1 62 3 0 6 30 8 68 1 37 13 108 25 157 l23 90 33
-3 c19 -1 40 3 48 10 30 24 72 138 80 214 4 41 1 54 -13 69 -22 22 -24 33 -10
60 10 20 13 31 20 70 2 11 8 33 15 48 6 16 11 37 11 47 0 10 6 21 13 23 6 3 7
6 1 6 -6 1 -8 20 -4 55 3 30 2 52 -2 50 -4 -3 -8 0 -8 5 0 6 4 11 10 11 12 0
2 74 -11 78 -5 2 -4 12 1 23 6 10 7 19 2 19 -9 0 -22 42 -27 83 -5 38 -53 117
-72 117 -5 0 -13 10 -18 23 -6 12 -14 22 -20 22 -23 2 -61 19 -72 34 -6 9 -14
13 -18 9 -4 -4 -25 11 -48 33 -22 21 -67 49 -99 61 -32 13 -58 26 -58 30 0 5
-7 8 -16 8 -13 0 -14 -3 -5 -13z"/>
</g>
</svg>
